<svg id="wysi-svg-icons" style="display: none;" xmlns="http://www.w3.org/2000/svg">
  <symbol id="wysi-bold" viewBox="0 0 24 24">
    <path d="M16.5,9.5A3.5,3.5,0,0,0,13,6H8.5a1,1,0,0,0-1,1V17a1,1,0,0,0,1,1H13a3.49,3.49,0,0,0,2.44-6A3.5,3.5,0,0,0,16.5,9.5ZM13,16H9.5V13H13a1.5,1.5,0,0,1,0,3Zm0-5H9.5V8H13a1.5,1.5,0,0,1,0,3Z"></path>
  </symbol>
  <symbol id="wysi-italic" viewBox="0 0 24 24">
    <path d="M17,6H11a1,1,0,0,0,0,2h1.52l-3.2,8H7a1,1,0,0,0,0,2h6a1,1,0,0,0,0-2H11.48l3.2-8H17a1,1,0,0,0,0-2Z"></path>
  </symbol>
  <symbol id="wysi-underline" viewBox="0 0 24 24">
    <path d="M12,15.5a5,5,0,0,0,5-5v-5a1,1,0,0,0-2,0v5a3,3,0,0,1-6,0v-5a1,1,0,0,0-2,0v5A5,5,0,0,0,12,15.5Zm5,2H7a1,1,0,0,0,0,2H17a1,1,0,0,0,0-2Z"></path>
  </symbol>
  <symbol id="wysi-strikeThrough" viewBox="0 0 24 24">
    <path d="M12 6C9.33 6 7.5 7.34 7.5 9.5c0 .58.12 1.07.35 1.5H13c-1.49-.34-3.49-.48-3.5-1.5 0-1.03 1.08-1.75 2.5-1.75s2.5.83 2.5 1.75h2C16.5 7.4 14.67 6 12 6zm-5.5 6c-.67 0-.67 1 0 1h4.35c.5.17 1.04.34 1.65.5.58.15 1.75.23 1.75 1s-.66 1.75-2.25 1.75-2.5-1.01-2.5-1.75h-2c0 1.64 1.33 3.5 4.5 3.5s4.5-2.08 4.5-3.5c0-.58-.05-1.07-.2-1.5h1.2c.67 0 .67-1 0-1z"></path>
  </symbol>
  <symbol id="wysi-alignLeft" viewBox="0 0 24 24">
    <path d="m4 8h16c1.33 0 1.33-2 0-2h-16c-1.33 0-1.33 2 0 2zm0 5h12c1.33 0 1.33-2 0-2h-12c-1.33 0-1.33 2 0 2zm16 3h-16c-1.33 0-1.33 2 0 2h16c1.34 0 1.29-2 0-2z"></path>
  </symbol>
  <symbol id="wysi-alignCenter" viewBox="0 0 24 24">
    <path d="m20 8h-16c-1.33 0-1.33-2 0-2h16c1.33 0 1.33 2 0 2zm-4 5h-8c-1.33 0-1.33-2 0-2h8c1.33 0 1.33 2 0 2zm-12 3h16c1.33 0 1.33 2 0 2h-16c-1.34 0-1.29-2 0-2z"></path>
  </symbol>
  <symbol id="wysi-alignRight" viewBox="0 0 24 24">
    <path d="m20 8h-16c-1.33 0-1.33-2 0-2h16c1.33 0 1.33 2 0 2zm0 5h-12c-1.33 0-1.33-2 0-2h12c1.33 0 1.33 2 0 2zm-16 3h16c1.33 0 1.33 2 0 2h-16c-1.34 0-1.29-2 0-2z"></path>
  </symbol>
  <symbol id="wysi-justify" viewBox="0 0 24 24">
    <path d="m20 8h-16c-1.33 0-1.33-2 0-2h16c1.33 0 1.33 2 0 2zm0 5h-16c-1.33 0-1.33-2 0-2h16c1.33 0 1.33 2 0 2zm-16 3h16c1.33 0 1.33 2 0 2h-16c-1.34 0-1.29-2 0-2z"></path>
  </symbol>
  <symbol id="wysi-ul" viewBox="0 0 24 24">
    <path d="M3 6a1 1 0 0 0-1 1 1 1 0 0 0 1 1 1 1 0 0 0 1-1 1 1 0 0 0-1-1zm4 0a1 1 0 0 0 0 2h14a1 1 0 0 0 0-2H7zm-4 5a1 1 0 0 0-1 1 1 1 0 0 0 1 1 1 1 0 0 0 1-1 1 1 0 0 0-1-1zm4 0a1 1 0 0 0 0 2h14a1 1 0 0 0 0-2H7zm-4 5a1 1 0 0 0-1 1 1 1 0 0 0 1 1 1 1 0 0 0 1-1 1 1 0 0 0-1-1zm4 0a1 1 0 0 0 0 2h14a1 1 0 0 0 0-2H7z"></path>
  </symbol>
  <symbol id="wysi-ol" viewBox="0 0 24 24">
    <path d="M4 5c-.25 0-.5.17-.5.5v3c0 .67 1 .67 1 0v-3c0-.33-.25-.5-.5-.5zm4.5 1c-1.33 0-1.33 2 0 2h12c1.33 0 1.33-2 0-2zm-6 5.5h.75c0-.43.34-.75.75-.75.4 0 .75.28.75.75L2.5 13.25V14h3v-.75H3.75L5.5 12v-.5c0-.9-.73-1.49-1.5-1.5-.77 0-1.5.59-1.5 1.5zm6-.5c-1.33 0-1.33 2 0 2h12c1.33 0 1.33-2 0-2zM4 15c-.83 0-1.5.63-1.5 1.25h.75c0-.28.34-.5.75-.5s.75.22.75.5-.34.5-.75.5v.5c.41 0 .75.22.75.5s-.34.5-.75.5-.75-.22-.75-.5H2.5c0 .62.67 1.25 1.5 1.25s1.5-.5 1.5-1.12c0-.34-.2-.66-.56-.88.35-.2.56-.53.56-.87 0-.62-.67-1.12-1.5-1.12zm4.5 1c-1.33 0-1.33 2 0 2h12c1.33 0 1.33-2 0-2z"></path>
  </symbol>
  <symbol id="wysi-indent" viewBox="0 0 24 24">
    <path d="m20 8h-15.9c-1.33 0-1.33-2 0-2h15.9c1.33 0 1.33 2 0 2zm2.86e-4 5h-9.08c-1.33 0-1.33-2 0-2h9.08c1.33 0 1.33 2 0 2zm-16.7-3.31c0.356-0.423 0.988-0.477 1.41-0.12l2 1.66c0.483 0.4 0.483 1.14 0 1.54l-2 1.66c-0.179 0.153-0.405 0.238-0.64 0.24-0.297 4.83e-4 -0.58-0.131-0.77-0.36-0.354-0.425-0.296-1.06 0.13-1.41l1.08-0.9-1.08-0.9c-0.426-0.353-0.484-0.985-0.13-1.41zm0.77 6.31h15.9c1.33 0 1.33 2 0 2h-15.9c-1.33 0-1.33-2 0-2z"></path>
  </symbol>
  <symbol id="wysi-outdent" viewBox="0 0 24 24">
    <path d="m4.1 6c-1.33 0-1.33 2 0 2h15.9c1.33 0 1.33-2 0-2h-15.9zm1.96 3.33c-0.224 0.00238-0.448 0.0803-0.633 0.236l-2 1.66c-0.483 0.4-0.483 1.14 0 1.54l2 1.66c0.179 0.153 0.404 0.238 0.639 0.24 0.297 4.83e-4 0.581-0.131 0.771-0.359 0.354-0.425 0.295-1.06-0.131-1.41l-1.08-0.9 1.08-0.9c0.426-0.353 0.485-0.985 0.131-1.41-0.2-0.238-0.489-0.359-0.777-0.355zm4.88 1.67c-1.33 0-1.33 2 0 2h9.08c1.33 0 1.33-2 0-2h-9.08zm-6.87 5c-1.33 0-1.33 2 0 2h15.9c1.33 0 1.33-2 0-2h-15.9z"></path>
  </symbol>
  <symbol id="wysi-link" viewBox="0 0 24 24">
    <path d="M8,12a1,1,0,0,0,1,1h6a1,1,0,0,0,0-2H9A1,1,0,0,0,8,12Zm2,3H7A3,3,0,0,1,7,9h3a1,1,0,0,0,0-2H7A5,5,0,0,0,7,17h3a1,1,0,0,0,0-2Zm7-8H14a1,1,0,0,0,0,2h3a3,3,0,0,1,0,6H14a1,1,0,0,0,0,2h3A5,5,0,0,0,17,7Z"></path>
  </symbol>
  <symbol id="wysi-image" viewBox="0 0 24 24">
    <path d="M6 5a3 3 0 0 0-3 3v8a3 3 0 0 0 3 3h12a3 3 0 0 0 3-3V8a3 3 0 0 0-3-3H6zm0 2h12a1 1 0 0 1 1 1v5.73l-.88-.88a3.06 3.06 0 0 0-4.24 0l-.88.88-2.88-2.88A3.06 3.06 0 0 0 8 10a3.06 3.06 0 0 0-2.12.85l-.88.88V8a1 1 0 0 1 1-1zm1.85 4.98a1 1 0 0 1 .85.27L13.45 17H6a1 1 0 0 1-.98-.92H5v-1.53l2.3-2.3a1 1 0 0 1 .55-.26zm8 2a1 1 0 0 1 .85.27l2.17 2.16c-.19.33-.55.59-.86.59h-1.72l-1.86-1.87.88-.88a1 1 0 0 1 .54-.28z"></path>
  </symbol>
  <symbol id="wysi-quote" viewBox="0 0 24 24">
    <path d="m9 6c-2.2 0-4 1.96-4 4.36v6c0 0.903 0.672 1.64 1.5 1.64h3c0.828 0 1.5-0.733 1.5-1.64v-3.27c0-0.903-0.672-1.64-1.5-1.64h-1.75c-0.414 0-0.75-0.367-0.75-0.818v-0.273c0-1.2 0.899-2.18 2-2.18h0.5c0.274 0 0.5-0.246 0.5-0.545v-1.09c0-0.298-0.226-0.545-0.5-0.545zm8 0c-2.2 0-4 1.96-4 4.36v6c0 0.903 0.672 1.64 1.5 1.64h3c0.828 0 1.5-0.733 1.5-1.64v-3.27c0-0.903-0.672-1.64-1.5-1.64h-1.75c-0.414 0-0.75-0.367-0.75-0.818v-0.273c0-1.2 0.899-2.18 2-2.18h0.5c0.274 0 0.5-0.246 0.5-0.545v-1.09c0-0.298-0.226-0.545-0.5-0.545z"></path>
  </symbol>
  <symbol id="wysi-hr" viewBox="0 0 24 24">
    <path d="m20 11h-16c-1.33 0-1.33 2 0 2 0 0 16-0.018 16 0 1.33 0 1.33-2 0-2z"></path>
  </symbol>
  <symbol id="wysi-removeFormat" viewBox="0 0 24 24">
    <path d="M7 6C5.67 6 5.67 8 7 8h3l-2 7c0 .02 2 0 2 0l2-7h3c1.33 0 1.33-2 0-2H7zm7.06 7c-.79-.04-1.49.98-.75 1.72l.78.78-.78.79c-.94.93.47 2.35 1.4 1.4l.79-.78.78.79c.94.93 2.35-.47 1.41-1.41l-.78-.79.78-.78c.94-.94-.47-2.35-1.4-1.41l-.8.79-.77-.79a.99.99 0 0 0-.66-.3zM7 16c-1.33 0-1.33 2 0 2 .02-.02 4 0 4 0 1.33 0 1.33-2 0-2H7z"></path>
  </symbol>
</svg>