<?xml version="1.0" encoding="UTF-8"?>
<svg version="1.1" viewBox="0 0 180 180" xmlns="http://www.w3.org/2000/svg">
  <circle cx="90" cy="90" r="90" fill="#6a70d6"/>
  <path d="m133.24 40c-5.4674 3.9501-10.29 8.9276-14.798 13.998-14.356 17.412-22.567 43.021-23.89 43.48-3.032-1.4221-6.697-16.396-9.0068-18.86-1.5541 1.288-10.899 21.842-10.899 21.842-1.9314-4.7358-5.04-8.8788-8.4704-12.638-2.0482-2.6214-4.3606-5.0621-7.1489-6.9138-7.2516-5.0425-15.942-7.2219-24.03-10.516 24.761 20.282 21.978 29.02 20.609 56.885 2.1963 1.2762 4.5392 2.2971 6.7894 3.4809 5.8249 2.9325 11.633 5.8968 17.43 8.8836 0.56696-9.1699 3.1535-11.828 7.3854-16.761 2.3815 5.9561 6.8532 10.475 12.125 14.024 2.7555 1.6831 5.8766 3.0952 9.1639 3.0972 2.1113-0.0473 4.8145-2.2156 4.7126-3.4958-3.2054-49.93 14.665-68.905 31.785-70.168z" fill="#fff"/>
</svg>
