<?xml version="1.0" encoding="UTF-8"?>
<svg version="1.1" viewBox="0 0 60 55" xmlns="http://www.w3.org/2000/svg">
  <path d="m53.586 0c-2.9822 2.1726-5.6129 4.9102-8.0715 7.6987-7.8304 9.5766-12.309 23.662-13.031 23.914-1.6538-0.78218-3.6529-9.0179-4.9128-10.373-0.84769 0.7084-5.945 12.013-5.945 12.013-1.0535-2.6047-2.7491-4.8834-4.6202-6.9509-1.1172-1.4418-2.3785-2.7842-3.8994-3.8026-3.9554-2.7734-8.6958-3.9721-13.107-5.7841 13.506 11.155 11.988 15.961 11.241 31.287 1.198 0.70189 2.4759 1.2634 3.7033 1.9145 3.1772 1.6129 6.3454 3.2433 9.5074 4.886 0.30925-5.0435 1.7201-6.5052 4.0284-9.2186 1.299 3.2759 3.7381 5.7614 6.6137 7.713 1.503 0.92572 3.2054 1.7024 4.9985 1.7035 1.1516-0.02603 2.6261-1.2186 2.5705-1.9227-1.7484-27.462 7.9991-37.898 17.337-38.593z"/>
</svg>
